<?xml version="1.0" standalone="no"?><!DOCTYPE svg PUBLIC "-//W3C//DTD SVG 1.1//EN" "http://www.w3.org/Graphics/SVG/1.1/DTD/svg11.dtd"><svg t="1755781660257" class="icon" viewBox="0 0 1024 1024" version="1.1" xmlns="http://www.w3.org/2000/svg" p-id="9098" xmlns:xlink="http://www.w3.org/1999/xlink" width="200" height="200"><path d="M0 0h1024v1024H0z" fill="#D8D8D8" opacity=".01" p-id="9099"></path><path d="M170.666667 170.666667h682.666666v682.666666H170.666667z" fill="#D8D8D8" opacity=".01" p-id="9100"></path><path d="M596.053333 254.72a32 32 0 0 1 45.226667 0l128 128a32 32 0 1 1-45.226667 45.226667l-128-128a32 32 0 0 1 0-45.226667z" fill="#FF7C00" p-id="9101"></path><path d="M638.72 212.053333a122.538667 122.538667 0 0 1 173.226667 173.226667l-448 448a32 32 0 0 1-22.613334 9.386667H213.333333a32 32 0 0 1-32-32v-128c0-8.490667 3.413333-16.64 9.386667-22.613334l448-448zM810.666667 778.666667a32 32 0 0 1 0 64h-362.666667a32 32 0 0 1 0-64H810.666667zM766.72 257.28a58.538667 58.538667 0 0 0-82.773333 0L245.333333 695.893333v82.773334h82.688L766.72 340.053333c21.333333-21.333333 22.741333-55.04 4.266667-78.037333l-4.266667-4.693333z" fill="#000000" p-id="9102"></path></svg>